<svg width="24" height="24" viewBox="0 0 24 24" fill="none" xmlns="http://www.w3.org/2000/svg">
<path fill-rule="evenodd" clip-rule="evenodd" d="M5.26996 8.91016C5.26996 5.18594 8.29575 2.16016 12.02 2.16016C15.7342 2.16016 18.77 5.19594 18.77 8.91016V11.8002C18.77 12.015 18.8186 12.3295 18.9108 12.6655C19.0018 12.9975 19.1194 13.2925 19.2264 13.4799L20.3731 15.3843C21.2786 16.8935 20.5547 18.8596 18.8865 19.4119C14.4226 20.903 9.60617 20.9029 5.1423 19.4115L5.13951 19.4106C4.29711 19.1254 3.66535 18.5359 3.38288 17.7731C3.10008 17.0094 3.19629 16.1497 3.65732 15.3835L4.80575 13.4761L4.80651 13.4748C4.91602 13.2907 5.03597 12.9968 5.12854 12.6633C5.22139 12.3288 5.26996 12.0148 5.26996 11.8002V8.91016ZM12.02 3.66016C9.12418 3.66016 6.76996 6.01437 6.76996 8.91016V11.8002C6.76996 12.1955 6.68854 12.6515 6.57388 13.0645C6.45917 13.4778 6.29446 13.9082 6.09417 14.2442L6.09249 14.247L4.9426 16.1568V16.1568C4.69375 16.5705 4.67986 16.956 4.78954 17.2522C4.89947 17.5491 5.16231 17.8343 5.61907 17.9893C9.77441 19.3773 14.257 19.3771 18.4123 17.9888L18.4146 17.9881C19.1653 17.7399 19.5009 16.8469 19.0872 16.1566V16.1566L17.9302 14.235C17.7381 13.902 17.5772 13.4745 17.4642 13.0623C17.3513 12.6508 17.27 12.1953 17.27 11.8002V8.91016C17.27 6.02437 14.9057 3.66016 12.02 3.66016Z" fill="#181818"/>
<path fill-rule="evenodd" clip-rule="evenodd" d="M9.47164 2.92629C9.87109 1.90701 10.8628 1.18994 12.0199 1.18994C13.1771 1.18994 14.1688 1.90701 14.5682 2.92629C14.6725 3.19236 14.6165 3.49457 14.4238 3.70562C14.2311 3.91667 13.9353 3.99988 13.6608 3.9202C13.3834 3.83966 13.1034 3.77889 12.8197 3.74449L12.8169 3.74415C11.9525 3.6361 11.1357 3.70023 10.3793 3.92013C10.1048 3.99991 9.80888 3.91676 9.61614 3.70571C9.42339 3.49466 9.36736 3.1924 9.47164 2.92629Z" fill="#181818"/>
<path fill-rule="evenodd" clip-rule="evenodd" d="M9.77002 19.0601C9.77002 19.6726 10.0248 20.2442 10.4303 20.6497C10.8359 21.0553 11.4075 21.3101 12.02 21.3101C13.2558 21.3101 14.27 20.2958 14.27 19.0601H15.77C15.77 21.1243 14.0842 22.8101 12.02 22.8101C10.9925 22.8101 10.0442 22.3849 9.36969 21.7104C8.69521 21.0359 8.27002 20.0875 8.27002 19.0601H9.77002Z" fill="#181818"/>
</svg>
