<svg width="40" height="40" viewBox="0 0 40 40" fill="none" xmlns="http://www.w3.org/2000/svg">
<path d="M20.0543 11C15.054 11 11 15.054 11 20.0543C11 24.5729 14.3106 28.3181 18.6399 29V22.6722H16.3399V20.0543H18.6399V18.0595C18.6399 15.7884 19.9919 14.5361 22.0592 14.5361C23.0498 14.5361 24.0875 14.7126 24.0875 14.7126V16.9393H22.943C21.8201 16.9393 21.4688 17.6384 21.4688 18.3547V20.0525H23.978L23.5768 22.6704H21.4688V28.9982C25.7981 28.32 29.1087 24.5738 29.1087 20.0543C29.1087 15.054 25.0546 11 20.0543 11Z" fill="#F9F9F9"/>
<path fill-rule="evenodd" clip-rule="evenodd" d="M2 20C2 29.9411 10.0589 38 20 38C29.9411 38 38 29.9411 38 20C38 10.0589 29.9411 2 20 2C10.0589 2 2 10.0589 2 20ZM20 0C8.95431 0 0 8.95431 0 20C0 31.0457 8.95431 40 20 40C31.0457 40 40 31.0457 40 20C40 8.95431 31.0457 0 20 0Z" fill="#F9F9F9"/>
</svg>
