<svg width="40" height="40" viewBox="0 0 40 40" fill="none" xmlns="http://www.w3.org/2000/svg">
<path fill-rule="evenodd" clip-rule="evenodd" d="M2 20C2 29.9411 10.0589 38 20 38C29.9411 38 38 29.9411 38 20C38 10.0589 29.9411 2 20 2C10.0589 2 2 10.0589 2 20ZM20 0C8.95431 0 0 8.95431 0 20C0 31.0457 8.95431 40 20 40C31.0457 40 40 31.0457 40 20C40 8.95431 31.0457 0 20 0Z" fill="#F9F9F9"/>
<path d="M19.9976 16.9986C18.345 16.9986 16.9964 18.3472 16.9964 19.9998C16.9964 21.6524 18.345 23.001 19.9976 23.001C21.6502 23.001 22.9988 21.6524 22.9988 19.9998C22.9988 18.3472 21.6502 16.9986 19.9976 16.9986ZM28.999 19.9998C28.999 18.757 29.0103 17.5254 28.9405 16.2849C28.8707 14.8439 28.542 13.5651 27.4883 12.5114C26.4323 11.4554 25.1557 11.129 23.7148 11.0592C22.472 10.9894 21.2404 11.0006 19.9998 11.0006C18.757 11.0006 17.5255 10.9894 16.2849 11.0592C14.844 11.129 13.5651 11.4577 12.5114 12.5114C11.4555 13.5673 11.129 14.8439 11.0592 16.2849C10.9894 17.5277 11.0007 18.7592 11.0007 19.9998C11.0007 21.2404 10.9894 22.4742 11.0592 23.7147C11.129 25.1557 11.4577 26.4345 12.5114 27.4882C13.5674 28.5442 14.844 28.8706 16.2849 28.9404C17.5277 29.0102 18.7593 28.999 19.9998 28.999C21.2427 28.999 22.4742 29.0102 23.7148 28.9404C25.1557 28.8706 26.4346 28.5419 27.4883 27.4882C28.5442 26.4323 28.8707 25.1557 28.9405 23.7147C29.0125 22.4742 28.999 21.2426 28.999 19.9998ZM19.9976 24.6176C17.4422 24.6176 15.3798 22.5552 15.3798 19.9998C15.3798 17.4444 17.4422 15.382 19.9976 15.382C22.553 15.382 24.6154 17.4444 24.6154 19.9998C24.6154 22.5552 22.553 24.6176 19.9976 24.6176ZM24.8045 16.2713C24.2079 16.2713 23.726 15.7895 23.726 15.1929C23.726 14.5962 24.2079 14.1144 24.8045 14.1144C25.4011 14.1144 25.883 14.5962 25.883 15.1929C25.8831 15.3346 25.8554 15.4749 25.8012 15.6058C25.7471 15.7367 25.6677 15.8557 25.5675 15.9559C25.4673 16.0561 25.3483 16.1355 25.2174 16.1896C25.0865 16.2438 24.9462 16.2715 24.8045 16.2713Z" fill="white"/>
</svg>
