<svg width="40" height="40" viewBox="0 0 40 40" fill="none" xmlns="http://www.w3.org/2000/svg">
<path fill-rule="evenodd" clip-rule="evenodd" d="M2 20C2 29.9411 10.0589 38 20 38C29.9411 38 38 29.9411 38 20C38 10.0589 29.9411 2 20 2C10.0589 2 2 10.0589 2 20ZM20 0C8.95431 0 0 8.95431 0 20C0 31.0457 8.95431 40 20 40C31.0457 40 40 31.0457 40 20C40 8.95431 31.0457 0 20 0Z" fill="#F9F9F9"/>
<path d="M29 29H25V22.25C25 21.1914 23.8121 20.3058 22.7535 20.3058C21.6949 20.3058 21 21.1914 21 22.25V29H17V17H21V19C21.6623 17.9286 23.3564 17.2373 24.525 17.2373C26.9965 17.2373 29 19.2786 29 21.75V29ZM15 29H11V17H15V29ZM13 11C14.1046 11 15 11.8954 15 13C15 14.1046 14.1046 15 13 15C11.8954 15 11 14.1046 11 13C11 11.8954 11.8954 11 13 11Z" fill="#F9F9F9"/>
</svg>
